Patient4_TMGait_0pt4_01_right_22_EMG.mot
version=1
nRows=36
nColumns=33
inDegrees=no
endheader
time	1LAddLong	2LGlutMax	3LGlutMed	4LIliopsoas	5LSemiMemb	6LBicFemLong	7LRecFem	8LVastMed	9LVastLat	10LGasMed	11LTibAnt	12lTibPost	13LPeroneusLong	14LSol	15LExtDigLong	16LFlexDigLong	17RAddLong	18RGlutMax	19RGlutMed	20RIliopsoas	21RSemiMemb	22RBicFemLong	23RRecFem	24RVastMed	25RVastLat	26RGasMed	27RTibAnt	28RTibPost	29RPeroneusLong	30RSol	31RExtDigLong	32RFlexDigLong
29.643	0.010223	0.14221	-0.091553	0.007172	0.00946	0.014496	-0.032959	0.036926	0.02243	-0.00473	0.006256	0.002289	-0.034637	0.016937	0.04425	-0.01236	0.007172	-0.032196	-0.29953	-0.10941	0.02655	0.41367	-0.025482	-0.036011	-0.037842	-0.002594	0.030518	-0.011139	0.41565	-0.031433	-0.001831	0.057983
29.644	0.014954	0.14999	-0.027924	0.002594	0.007019	0.004578	-0.019226	0.009308	0.0354	-0.00885	-0.004578	0.002747	0.03418	0.01709	0.037079	-0.000153	0.020752	0.038605	-0.27649	-0.12131	-0.015564	0.27008	-0.000763	-0.063934	-0.045471	-0.001526	-0.23926	-0.007629	0.53482	0.033112	-0.005341	0.072174
29.645	0.012512	0.12589	0.025024	0.007477	0.009918	0.003815	0.014954	-0.003662	-0.006256	0.00946	0.003052	0.004578	0.064087	0.010834	0.045776	0	0.064545	-0.013275	-0.14023	-0.11566	-0.11444	0.1265	-0.040588	-0.096741	-0.059357	0.000153	-0.17303	-0.005188	0.69763	0.025177	-0.001068	0.08194
29.646	0.010986	0.085144	-0.001068	0.00946	0.001678	-0.011749	0.11047	-0.011292	-0.085602	0.010529	0.007324	0.007629	0.019684	0.02655	0.015106	0.005035	0.083313	-0.11871	0.12238	-0.086365	-0.26291	0.025024	-0.00824	-0.17425	-0.056458	0.003357	-0.058136	-0.010223	0.57785	0.042419	-0.005646	0.074158
29.647	0.001373	0.076141	0.005646	0.014191	0.000916	-0.011749	0.11719	-0.001678	-0.048676	-0.013275	0.006561	0.00885	-0.005798	0.031433	-0.005646	-0.006714	0.10498	-0.065308	0.056458	-0.025177	-0.37735	-0.023804	-0.022278	-0.22171	-0.07309	0.012512	0.003662	-0.013733	0.43488	0.040283	-0.005951	0.070496
29.648	-0.001831	0.11459	-0.001526	-0.009155	0.00473	0.005341	0.11185	0.000763	0.014038	0.001221	0.008392	0.011597	-0.007324	0.014954	-0.000916	-0.008087	0.070648	-0.035706	-0.13138	0.13306	-0.39368	0.010376	0.002747	-0.21393	-0.065765	0.021057	-0.007935	-0.010681	0.30411	0.002899	-0.004272	0.064087
29.649	0.002136	0.074005	-0.056152	0.020905	-0.000916	0.031433	0.054626	-0.001221	-0.049286	0.023499	-0.00412	0.010986	0.009003	0.020294	-0.011902	-0.009003	-0.002594	-0.008545	0.16434	0.27618	-0.065918	0.12039	-0.001221	-0.14877	-0.04364	0.02533	-0.002899	-0.011292	0.30655	0.020599	-0.001221	0.060272
29.65	-0.000153	0.069275	-0.086517	0.024872	0.006409	0.014343	0.000153	0.003052	-0.009155	0.025787	0.0383	0.009308	0.010529	0.035248	0.036469	-0.007477	-0.036163	-0.027618	0.031738	0.1828	0.30106	0.049438	-0.054169	0.008545	-0.02121	0.034943	0.005035	-0.009613	0.096588	0.009766	-0.005493	0.056458
29.651	-0.001068	0.037994	-0.000153	0.010681	-0.001526	0.007629	0.04715	0.014496	-0.04837	-0.007629	0.017548	0.013428	0.031433	0.012512	0.070801	-0.010986	-0.071869	0.011749	-0.12207	0.088348	0.28122	0.014648	-0.072174	0.043488	-0.031433	0.045471	0.021973	-0.012512	-0.31052	0.011444	-0.003052	0.043793
29.652	-0.006104	0.03067	-0.055847	0.015564	-0.002594	0.014496	0.084991	0.004578	-0.057526	-0.011902	-0.011139	0.007782	0.025787	0.044708	0.016632	0.003815	-0.04425	-0.02243	0.035553	0.036011	0.11215	-0.052643	-0.035095	0.00473	-0.035858	0.06424	0.037689	-0.009613	-0.12924	0.016479	-0.002747	0.03891
29.653	0.002136	0.035706	-0.099182	-0.001221	0.002747	0.005646	0.062408	-0.008698	0.026398	-0.024567	-0.010529	0.001678	0.028839	0.023956	-0.016785	0.000153	-0.027924	-0.006409	-0.35599	-0.13916	-0.009613	-0.006104	-0.027313	-0.016632	-0.050201	0.075073	0.031128	-0.01358	0.011444	0.008698	-0.004578	0.036316
29.654	0.008087	0.013123	-0.095673	0.002441	0.001831	0.005951	0.067596	-0.013275	0.054932	-0.02121	-0.006866	0.007477	0.009308	-0.015259	-0.021515	-0.006104	-0.032806	-0.026855	-0.75623	-0.22751	0.006409	0.14328	-0.009308	-0.030365	-0.054016	0.091095	0.027466	-0.013275	0.044708	0.02182	-0.000458	0.034943
29.655	0.003967	0.01236	-0.067596	0.010529	-0.006409	0.023499	0.049591	0.011139	0.077515	-0.063782	-0.028992	0.000153	0.001526	-0.028534	0.093689	-0.008545	-0.049744	0.019836	-1.0901	-0.14877	0.058899	0.30365	-0.010071	-0.017548	-0.037079	0.10712	0.020599	-0.009155	0.057068	-0.001831	-0.001984	0.029297
29.656	0.006409	0.029297	0.001221	-0.014038	0.006561	0.025177	0.081329	-0.001373	0.091248	-0.042725	-0.042419	0.004425	0.00412	0.010071	0.10025	0.001068	-0.058594	0.083313	-0.87387	0.03479	0.084076	0.35645	-0.006714	0.009308	-0.018768	0.11826	0.00885	-0.014343	0.033569	-0.001678	-0.000916	0.030975
29.657	0.013275	0.055695	0.073547	-0.015106	0.015564	0.003815	0.13565	0.001221	-0.031738	-0.028992	0.041809	-0.000305	-0.007935	0.054626	0.30472	0.014191	-0.034637	0.097351	-0.37033	0.21668	0.089111	0.27466	0.012512	0.016937	-0.009003	0.13168	0.013885	-0.007629	-0.026703	0.025482	-0.001373	0.030212
29.658	0.005035	0.019226	-0.031586	-0.011292	0.002594	0.010223	0.14908	0.026855	-0.088501	-0.05127	0.091248	-0.00351	0.008087	0.10574	0.72617	0.024872	-0.005493	-0.006409	0.53223	0.1976	0.012054	0.18738	0.027924	-0.031281	-0.037537	0.14221	0.041656	-0.010986	-0.12436	0.007935	-0.003662	0.029297
29.659	0.001984	0.045776	-0.032959	0.009308	0.002441	-0.005798	0.19943	0.011444	-0.043945	-0.10361	0.043335	0.003967	0.039978	0.095215	-0.66361	0.03418	0.017395	0.040894	1.4699	0.056152	-0.030365	0.2301	-0.014191	-0.009308	-0.025177	0.14435	0.042267	-0.005035	-0.056	0.005035	-0.002289	0.026703
29.66	0.009766	0.024261	-0.033569	0.005188	-0.000305	0.028992	0.19547	0.009918	-0.066223	-0.092621	0.01236	-0.006409	-0.007324	0.10193	-0.47775	0.011597	0.01709	-0.011597	0.7428	0.019989	-0.03418	0.25116	0.012817	-0.09201	-0.012054	0.13916	0.11093	-0.007935	0.00412	-0.012512	-0.002441	0.030518
29.661	0.007477	-0.005646	0.028992	-0.002747	0.003204	0.015106	0.15381	0.044861	-0.058746	-0.041504	-0.014496	-0.011292	-0.041962	0.19287	-0.383	-0.024872	-0.001678	-0.046997	0.22476	-0.023499	-0.009308	0.23636	0.030212	-0.059052	-0.019836	0.1355	0.096436	-0.008698	-0.15808	-0.018311	-0.003662	0.032196
29.662	0.01236	0.035858	0.01236	-0.010986	0.014954	-0.003662	-0.036926	0.045013	-0.030823	-0.024567	0.002289	-0.002899	0.010529	0.21332	-0.13199	-0.030365	-0.025024	-0.009003	0.26764	0.001678	-0.041962	0.14542	0.010986	-0.061493	0.000153	0.13046	-0.044403	-0.007324	-0.062103	-0.031281	-0.007324	0.026093
29.663	0.005798	0.049896	-0.03479	0.023804	0.012054	0.004578	-0.10834	0.033264	0.06424	0.000305	0.013123	0.001068	0.014801	0.17792	-0.037994	-0.011902	-0.029755	0.024261	-0.15839	0.009918	-0.005798	0.18829	0.003967	0.000458	-0.005951	0.11566	-0.045166	-0.007019	0.13519	-0.015106	-0.009155	0.023346
29.664	0.030212	-0.00946	-0.09964	0.009155	0.006561	-0.007477	-0.23361	0.012207	0.24002	0.036926	0.048523	-0.008698	-0.030212	0.077362	-0.080566	0.001526	-0.036926	-0.007629	-0.1712	0.043335	-0.029755	0.2214	-0.00946	0.0177	-0.012817	0.10056	-0.001678	-0.007935	0.40619	-0.012054	-0.005646	0.019531
29.665	0.013885	-0.003967	-0.20386	0.010529	0.013275	0.010376	-0.15793	-0.018311	0.28519	0.091248	0.079498	-0.006256	-0.055389	-0.064392	0.39856	-0.005188	-0.028381	0.024261	0.074615	0.009308	-0.019989	0.15808	0.011597	0.044403	0.004425	0.074463	0.011139	-0.001678	0.31723	0.00061	-0.003815	0.018921
29.666	-0.000305	0.005188	-0.10666	-0.000458	0.005188	0.009308	0.015259	-0.027313	0.14679	0.1004	0.002899	-0.000458	-0.024872	-0.12131	0.28839	0.007324	0.009308	0.0354	-0.044708	-0.075226	-0.015411	0.035553	-0.021667	-0.025482	0.000153	0.054779	-0.02533	-0.011902	0.0177	0.029602	-0.002899	0.024719
29.667	0.002441	0.019836	0.056915	0.005188	-0.000916	0.005493	0.09964	-0.011444	0.12024	0.076294	0.077972	-0.003662	0.027008	-0.050659	0.40649	0.00061	0.06485	0.084534	0.5191	-0.06012	0.042725	-0.082703	-0.040436	-0.04364	-0.000305	0.040741	-0.00473	-0.004272	-0.20004	0.033264	0.000305	0.011139
29.668	0.000916	-0.039978	-0.18875	-0.009308	0.008392	-0.000458	0.14999	-0.006561	0.083008	0.021515	0.30075	0.001678	0.085907	0.010071	-0.36514	0.015564	0.08316	0.022736	0.040131	-0.01358	0.030212	-0.089722	-0.031586	-0.06134	0.009766	0.030212	0.023956	-0.009613	-0.24857	0.0383	-0.005341	0.018005
29.669	0.009918	-0.066833	-0.17807	-0.023804	0.007019	0.005951	0.12848	0.001984	0.037994	-0.016632	0.20691	0.001373	0.21561	0.10071	-0.32959	0.009155	0.07019	-0.054474	-0.075378	-0.014191	0.06424	-0.066528	-0.023956	-0.057373	-0.007019	0.02243	-0.074158	-0.002289	0.034485	0.003204	-0.001373	0.018158
29.67	0.012665	-0.058746	-0.16937	-0.005341	0.002747	0.003204	0.027161	-0.002747	0.048523	-0.06485	-0.15869	-0.005646	0.22446	0.18814	0.29175	0.023499	0.059967	-0.036621	-0.35629	-0.012054	-0.038452	0.1442	-0.029144	-0.001373	0.008698	0.032043	-0.072784	-0.007477	0.57739	-0.069122	-0.004425	0.015869
29.671	0.012512	-0.043945	-0.13199	0.001526	0.009766	0.00473	0.014496	-0.001678	0.079041	0.000153	0.13275	-0.007935	-0.001221	0.23209	0.25009	0.018921	0.052643	-0.044556	-0.41367	0.022125	-0.093689	0.26123	-0.046692	0.002747	-0.001221	0.016174	-0.067139	-0.008545	0.23102	-0.037384	-0.003052	0.010834
29.672	0.009308	-0.023041	-0.024414	0.004883	0.001221	0.001678	0.075531	0.001984	0.075073	-0.01236	0.46265	-0.005951	-0.058136	0.32883	0.48782	0.023193	-0.014343	-0.041809	-0.29465	0.018616	-0.074615	0.25757	-0.016785	0.069733	0.002289	0.000916	-0.08606	-0.006866	0.051422	0.008698	-0.006104	0.018921
29.673	0.001373	-0.029144	0.027161	-0.002136	0.002289	-0.001526	0.065765	-0.001373	0.068665	-0.038757	-0.20157	0.002289	0.088501	0.40909	0.21683	0.005951	-0.06424	-0.036621	-0.17838	-0.015106	-0.23407	0.30838	-0.056305	0.071564	-0.009766	0.008698	-0.084076	-0.002289	0.10269	-0.004883	-0.00885	0.018311
29.674	-0.009003	-0.04364	0.049286	0.001984	-0.002289	0.027771	0.058136	-0.001526	0.049286	-0.023499	-0.56274	-0.001221	0.098877	0.22964	-0.81222	-0.027008	-0.068665	-0.023193	-0.001526	-0.081482	-0.36438	0.24078	-0.065765	0.086517	0.017242	-0.009308	-0.043335	-0.004425	0.075684	-0.050354	-0.006409	0.011139
29.675	0.001678	-0.048676	0.006561	-0.010376	-0.002136	0.022888	0.05188	0.011902	0.048065	0.008392	-0.46845	-0.003967	0.05661	-0.099182	-1.3588	-0.030365	-0.082397	-0.042877	0.28473	-0.037079	0.012665	0.17883	-0.075226	0.15732	0.036926	-0.011902	-0.31799	-0.007629	0.081482	-0.064392	-0.004272	0.026703
29.676	0.004272	-0.038757	-0.007324	-0.002441	0.006256	-0.021515	0.076447	0.01358	0.021515	-0.00946	-0.26504	-0.005188	0.060425	-0.26108	-0.96512	-0.032806	-0.053558	-0.040283	-0.20523	0.055847	0.10391	0.15381	-0.050964	0.12192	0.006866	-0.015717	-0.10132	-0.005493	0.084381	-0.079346	0.004883	0.017548
29.677	0	-0.043182	-0.04303	0.004578	-0.001984	0.01297	0.084229	0.00412	-0.014343	-0.054474	-0.15335	0.005341	0.074463	-0.2536	-0.23178	-0.008087	-0.048981	-0.028992	-0.46906	0.017853	-0.072784	0.18997	-0.024567	0.05661	-0.005798	-0.01709	0.14755	-0.000916	0.076447	-0.08667	-0.004578	0.02594
29.678	0.010223	-0.046692	-0.053711	0.013885	-0.005188	0.013428	0.082855	0.007629	-0.045471	-0.044098	-0.075073	-0.001373	0.048218	-0.23483	0.24216	-0.003357	-0.001221	-0.003357	-0.73883	-0.00061	-0.10162	0.21011	-0.011902	-0.001221	-0.031891	-0.027161	0.15427	-0.006256	0.019836	-0.028839	-0.003357	0.018005
